<svg width="95" height="84" viewBox="0 0 95 84" fill="none" xmlns="http://www.w3.org/2000/svg">
<path d="M22.1236 82.6239C21.121 82.8598 20.0955 82.9787 19.0667 82.9782C18.2891 82.9782 17.5099 82.9187 16.7323 82.8301L16.0397 82.7415C16.0397 82.7415 16.1845 83.331 16.1845 83.5082C16.1845 83.6853 16.0397 83.7159 15.9248 83.7739C15.746 83.8371 15.5629 83.8866 15.377 83.9221C15.0075 84.0001 14.6284 84.0197 14.2531 83.9801C13.4984 83.9124 12.759 83.7232 12.0619 83.4196H12.0321C11.1962 83.0668 10.3902 82.5949 9.66929 82.0038C7.305 80.1757 7.82443 44.1893 8.60208 40.1773C8.80507 39.1448 14.1381 39.1754 13.6769 41.4754C13.2142 43.777 13.5321 66.2534 13.5321 66.2534C13.5023 64.6895 14.1083 62.7713 14.5128 61.2089C14.9158 59.616 15.4054 58.0231 16.0397 56.4897C16.8756 54.3669 18.1741 51.5644 20.7967 51.5644C22.2102 51.5644 24.0834 52.0943 25.6685 54.2768C28.7239 58.495 31.3479 79.4381 22.1236 82.6239ZM19.9026 54.5135C19.6477 54.6416 19.4292 54.8346 19.2682 55.074C18.1159 56.8731 17.8279 59.587 17.4234 61.6808C16.9622 64.0749 16.5873 66.4855 16.2994 68.9077C16.0397 71.0306 15.8099 73.155 15.6084 75.2794C15.4636 76.7837 14.7427 79.2609 15.8666 80.53C16.1561 80.8538 16.5875 81.002 16.992 81.002C19.1249 81.002 20.422 78.8485 21.2012 77.1075C22.3534 74.6013 22.9296 71.9454 23.1326 69.2025C23.3341 66.4886 23.3624 63.7762 22.9594 61.0913C22.6997 59.3503 22.3251 57.5221 21.6907 55.8697C21.4594 55.1626 20.7683 54.1592 19.9026 54.5135ZM74.3319 61.829C74.2722 61.3861 71.4482 56.3126 65.0195 50.1486C66.7778 46.2236 68.566 42.8637 69.8332 41.0615C70.2959 39.9421 67.845 38.5859 66.6047 38.2896C66.2599 38.201 65.942 38.4087 65.739 38.7019C64.3568 40.5911 62.7985 43.5112 61.2716 46.7856C61.0119 46.5489 60.7537 46.3427 60.4656 46.1075C55.1027 41.7702 52.5652 43.2745 50.0577 44.898C47.8665 46.3137 47.6367 48.6443 46.8874 51.0039C46.6844 47.6699 45.9635 44.9865 44.4932 43.8655C44.2837 43.7158 44.0496 43.6057 43.8022 43.5402C41.6677 43.0393 38.4109 43.806 36.9989 44.5146C36.6526 44.6918 36.3645 44.9575 36.163 45.2813C35.5003 46.4313 35.4704 48.1724 35.3272 50.6205C34.0584 50.3242 31.521 50.561 31.3777 51.1215C30.6284 53.8644 30.4837 56.7845 30.4837 59.616C30.4837 62.5666 30.6568 65.5157 31.118 68.4358C31.2628 69.3797 31.4344 70.354 31.7225 71.2673C31.8957 71.9164 32.1554 72.5655 32.6181 73.097C33.1062 73.6865 33.7704 73.9217 34.4614 74.1584C35.9033 74.6593 37.4601 74.9251 38.9587 74.867C40.0542 74.8365 41.1782 74.6303 42.1305 74.0698C44.0619 72.9198 46.4262 63.7762 46.8874 55.7231C49.28 52.3601 49.1352 47.789 51.413 46.8437C53.1145 46.1366 56.055 48.29 59.1387 51.5628C55.9967 59.086 53.4877 66.8139 53.9489 67.8463C54.7564 69.6744 58.5043 71.475 58.6491 69.9692C58.9655 66.342 60.6671 60.9432 62.7135 55.694C64.8552 58.3792 66.8198 61.2073 68.5943 64.1595C68.8824 64.6605 69.257 65.3095 69.7183 65.3691C71.1318 65.5753 74.5319 63.3623 74.3304 61.829H74.3319ZM41.1214 45.1041C44.8679 44.426 44.2917 51.0039 43.744 55.2511C43.7194 55.4376 43.6481 55.6144 43.537 55.7643C43.4258 55.9142 43.2785 56.0321 43.1096 56.1064C41.5245 56.7555 40.7752 56.5187 40.314 51.8301C39.9975 48.4366 40.0542 45.3103 41.12 45.1041H41.1214ZM38.5243 72.6815C38.381 72.6815 38.2362 72.6815 38.0915 72.6235C36.9974 72.2112 36.8526 70.2334 36.6511 69.2605C36.4602 68.3813 36.2969 67.4961 36.1615 66.6062C35.6137 62.9775 35.4122 59.2311 35.6988 55.5444C37.6885 60.4407 41.6394 59.8206 43.4544 58.7592C43.3395 58.8188 43.3395 59.7916 43.3111 59.9398C43.2513 60.3325 43.1936 60.7255 43.138 61.1188C43.0215 61.916 42.8499 62.7117 42.7051 63.4784C42.3103 65.3194 41.7998 67.1325 41.1767 68.9062C40.7155 70.1448 40.3125 72.0325 38.987 72.6235C38.8139 72.6235 38.6691 72.6541 38.5243 72.6815ZM78.7694 42.8621C79.8366 43.1569 85.2264 37.8772 85.2264 37.1686C85.2264 35.7834 83.4398 33.5414 82.9203 34.4562C81.8248 36.3729 77.5022 39.4106 77.5873 40.7683C77.6455 41.7702 78.1067 42.685 78.7694 42.8621ZM77.5589 53.5406C77.8186 54.6326 85.0816 56.8731 85.7175 56.5187C86.8981 55.8712 87.9654 53.2749 86.9564 53.1283C83.4099 52.6548 79.2306 50.5915 78.6246 51.5048C77.9336 52.5082 77.3858 52.8915 77.5589 53.5406ZM91.2521 48.6137C92.0879 48.4671 92.2894 44.368 90.8774 44.6612C90.5028 44.7498 89.7819 44.8094 88.8311 44.898C83.8428 45.1637 81.1904 44.956 80.1814 45.7227C79.4903 46.2251 79.4321 48.6443 80.268 48.7313C80.874 48.7619 90.0416 48.8214 91.2521 48.6137ZM0.35842 24.5444C-0.42072 24.8392 0.127066 28.9108 1.45399 28.3503C1.79878 28.2021 2.49135 27.996 3.41378 27.7302C8.25728 26.5207 10.9096 26.1969 11.7455 25.2821C12.3216 24.6635 11.947 22.2734 11.1111 22.362C10.535 22.3925 1.54056 24.103 0.35842 24.5459V24.5444ZM94.0492 7.96771C93.4716 8.23193 87.0146 22.8339 86.2936 22.5987C85.5727 22.362 87.4474 6.84672 87.8788 5.40195C88.3116 3.92663 83.6413 3.30657 83.0069 3.63035C82.9203 3.68991 82.4591 4.98807 81.7098 9.38347C81.5949 10.031 81.4501 10.6816 81.277 11.3002C79.2023 18.4095 76.0603 26.3435 75.5991 26.374C74.2722 26.4031 74.8498 13.8965 76.9529 6.84672C77.3858 5.3714 72.7736 4.69331 72.5139 5.31184C71.8796 6.72759 70.987 11.4773 70.4675 16.2851C70.3533 17.3318 70.1209 18.3614 69.775 19.3533C68.6227 22.7743 66.1435 29.9722 65.0763 30.267C63.1448 30.8565 64.4718 12.8045 64.933 11.1826C65.1628 10.3563 63.8941 10.1792 62.7702 10.2082C62.6927 9.91322 62.566 9.6342 62.3955 9.38347C61.8194 8.67483 60.3492 8.05477 57.3505 8.35105C54.0922 8.67483 50.7204 14.8983 49.1636 21.2104C48.7845 22.777 48.2731 24.307 47.6352 25.783C46.4262 28.6435 45.1858 30.9451 43.9738 32.4494C43.4842 33.0695 42.4752 32.6846 42.5036 31.8889C42.6484 27.6416 42.1006 19.5595 46.5978 2.39175C47.2322 0.79884 42.3006 -0.528333 41.3215 0.209325C40.6886 0.681242 40.4572 2.21459 40.2274 2.92323C39.8244 4.07325 39.4766 5.25381 39.1318 6.43284C38.4676 8.73439 35.4704 18.8218 34.9227 21.1524C33.9137 25.2821 31.0598 32.9213 30.7135 33.7476C30.3105 34.7494 27.7432 42.1245 26.0432 41.593C24.3132 41.3868 22.1221 29.8836 29.2433 4.72233C29.6762 3.15843 23.9968 1.8618 23.5072 2.98127C22.5549 5.19424 15.78 39.7939 21.1131 44.3084C23.5938 46.4008 27.1969 45.9579 28.2059 45.3393C32.6733 42.743 37.1138 23.7777 37.1138 23.7777C37.1138 23.7777 36.1615 31.1222 37.5168 34.0713C38.2094 35.5757 39.6214 36.3729 41.2065 36.5501C42.9081 36.7272 44.7246 36.5791 45.9052 35.2519C47.1441 33.8652 47.8367 32.0661 48.5009 30.3556C48.7591 31.5926 49.2218 32.9213 50.2308 33.746C51.816 35.0442 55.1027 35.9896 56.7744 34.25C57.6968 33.2756 58.1282 32.0065 58.5043 30.7679C58.9655 29.2346 59.3103 27.6707 59.5417 26.0793C59.4268 27.8478 59.9148 29.8241 61.2433 31.0932C62.512 32.3303 64.9598 33.2756 66.6614 32.3914C67.6137 31.9179 68.1615 30.8275 68.5928 29.8836C69.2272 28.5259 69.6884 27.1102 70.1213 25.6944C70.2078 26.7864 70.4093 27.6416 70.7273 28.025C71.6497 29.2636 73.0901 29.8531 74.5901 29.9722C76.1469 30.0898 77.6739 30.0012 78.5963 28.5855C79.1441 27.7608 79.5187 26.7268 79.865 25.783C80.0665 25.2515 80.268 24.691 80.4411 24.1305C80.5859 23.6876 80.9322 23.0401 80.9322 22.5681C81.0188 23.2462 81.1337 23.9839 81.4218 24.604C82.2875 26.6383 85.3428 27.4049 87.3325 26.9926C88.8012 26.6978 89.6669 24.9873 90.3296 23.7777C92.2029 20.2956 93.4432 16.4317 94.5089 12.6563C94.6821 12.0088 95 11.2406 95 10.564C94.8851 9.76681 94.597 7.70197 94.0492 7.96771ZM60.1163 10.8573C60.2764 10.9817 60.3888 11.1594 60.4343 11.3597C60.6059 11.9783 60.4343 12.6869 60.3178 13.2764C59.7417 15.8422 59.3088 18.3789 58.8476 20.9737C58.4621 22.951 57.991 24.9099 57.4356 26.8444C57.1521 27.8616 56.8249 28.8654 56.455 29.8531C56.1968 30.5327 55.8788 31.2688 55.4176 31.8293C55.2728 32.0065 55.1012 32.2142 54.8982 32.3028C54.322 32.5975 53.8325 32.0661 53.5444 31.6232C53.0533 30.9161 52.8802 30.0303 52.7936 29.204C52.6787 28.0845 52.7369 26.933 52.8533 25.783C53.1735 23.0698 53.812 20.4059 54.7549 17.849C55.1878 16.6104 57.5505 11.094 59.1073 10.7106C59.4253 10.6511 59.8283 10.6511 60.1163 10.8573ZM14.974 11.7446C15.2621 10.6526 9.98721 5.10719 9.26628 5.07665C7.911 5.0461 5.74822 6.78716 6.58557 7.40722C9.46629 9.56063 12.1201 13.4551 13.0993 12.9817C14.1381 12.4517 14.771 12.3921 14.974 11.7446ZM2.663 13.307C1.82714 13.2474 0.731571 17.2014 2.17343 17.2595C2.54807 17.2595 3.269 17.348 4.21979 17.4947C9.1215 18.411 9.92751 19.1181 11.0529 18.6156C11.8306 18.2919 12.4067 15.9613 11.6291 15.6665C11.0529 15.4604 3.90336 13.365 2.663 13.307Z" fill="white"/>
</svg>
